<?xml version="1.0" encoding="utf-8"?>
<!-- Generator: Adobe Illustrator 19.2.0, SVG Export Plug-In . SVG Version: 6.00 Build 0)  -->
<svg version="1.1" id="圖層_2" xmlns="http://www.w3.org/2000/svg" xmlns:xlink="http://www.w3.org/1999/xlink" x="0px" y="0px"
	 viewBox="0 0 33 33" style="enable-background:new 0 0 33 33;" xml:space="preserve">
<style type="text/css">
	.st0{fill:#FFFFFF;}
</style>
<g>
	<path id="svg_1_1_" class="st0" d="M26.2,0H6.8C3.1,0,0,3.1,0,6.8v19.5C0,29.9,3.1,33,6.8,33h19.5c3.7,0,6.8-3.1,6.8-6.8V6.7
		C33,3,29.9,0,26.2,0z M26.8,20.2c-0.1,0.1-0.1,0.2-0.2,0.3l0,0c-0.4,0.5-0.8,0.9-1.3,1.3c-3.4,3.1-8.8,6.8-9.6,6.2
		c-0.6-0.5,1.1-2.9-0.9-3.3c-0.1,0-0.3-0.1-0.4-0.1l0,0l0,0c-5.6-0.8-9.9-4.8-9.9-9.5c0-5.4,5.4-9.7,12.1-9.7s12.1,4.4,12.1,9.7
		C28.6,17,27.9,18.7,26.8,20.2z"/>
	<path id="svg_2_1_" class="st0" d="M11.9,16.9h-1.8v-4c0-0.4-0.3-0.6-0.6-0.6H9.5c-0.4,0-0.6,0.3-0.6,0.6v4.6
		c0,0.4,0.3,0.6,0.6,0.6h0.1l0,0h2.4c0.4,0,0.6-0.3,0.6-0.6v-0.1C12.5,17.2,12.2,16.9,11.9,16.9z"/>
	<path id="svg_3_1_" class="st0" d="M13.8,12.2L13.8,12.2c-0.4,0-0.7,0.3-0.7,0.6v4.6c0,0.4,0.3,0.6,0.6,0.6h0.1
		c0.4,0,0.6-0.3,0.6-0.6v-4.6C14.4,12.5,14.1,12.2,13.8,12.2z"/>
	<path id="svg_4_1_" class="st0" d="M19.5,12.2L19.5,12.2c-0.4,0-0.7,0.3-0.7,0.6v2.8l-2.3-3.1c-0.1-0.2-0.3-0.3-0.5-0.3h-0.1
		c-0.4,0-0.6,0.3-0.6,0.6v4.6c0,0.4,0.3,0.6,0.6,0.6h0.1c0.4,0,0.6-0.3,0.6-0.6v-2.8l2.3,3.1l0.1,0.1l0,0c0.1,0.1,0.2,0.1,0.2,0.2
		c0.1,0.1,0.2,0.1,0.2,0.1h0.1c0.1,0,0.2,0,0.3-0.1s0.1-0.1,0.2-0.1l0,0c0.1-0.1,0.2-0.3,0.2-0.5v-4.6
		C20.1,12.5,19.8,12.2,19.5,12.2z"/>
	<path id="svg_5_1_" class="st0" d="M23.9,12.3h-2.4l0,0h-0.1c-0.4,0-0.6,0.3-0.6,0.6v4.6c0,0.4,0.3,0.6,0.6,0.6h0.1l0,0h2.4
		c0.4,0,0.6-0.3,0.6-0.6v-0.1c0-0.4-0.3-0.6-0.6-0.6h-1.8v-1h1.8c0.4,0,0.6-0.3,0.6-0.6v-0.1c0-0.4-0.3-0.6-0.6-0.6h-1.8v-1h1.8
		c0.4,0,0.6-0.3,0.6-0.6v-0.1C24.6,12.5,24.3,12.3,23.9,12.3z"/>
</g>
</svg>
