<?xml version="1.0" encoding="utf-8"?>
<!-- Generator: Adobe Illustrator 13.0.1, SVG Export Plug-In . SVG Version: 6.00 Build 14948)  -->
<!DOCTYPE svg PUBLIC "-//W3C//DTD SVG 1.1//EN" "http://www.w3.org/Graphics/SVG/1.1/DTD/svg11.dtd">
<svg version="1.1" id="圖層_1" xmlns="http://www.w3.org/2000/svg" xmlns:xlink="http://www.w3.org/1999/xlink" x="0px" y="0px"
	 width="76.609px" height="54.287px" viewBox="0 0 76.609 54.287" enable-background="new 0 0 76.609 54.287" xml:space="preserve">
<polyline fill="none" points="46.474,17.78 44.762,41.39 52.986,42.47 53.449,34.827 57.04,41.472 64.782,41.64 67.856,19.707 
	59.632,18.045 57.638,24.359 54.48,17.962 46.174,17.68 "/>
<polygon points="15.357,12.828 26.056,12.621 26.472,18.386 21.269,18.594 21.538,23.089 26.563,22.997 26.933,28.068 
	21.998,28.199 22.922,35.809 16.465,35.999 "/>
<polygon points="48.178,16.586 46.277,35.696 51.639,36.502 52.244,27.624 56.501,35.578 61.927,35.788 63.714,18.345 
	58.641,17.405 56.928,25.476 52.878,17.192 "/>
<g>
	<g>
		<path d="M30.181,20.908l3.415-0.405c0,0,1.643,6.578,3.376,6.693c2.314,0.154,2.815-1.427,2.756-3.625
			c-0.059-2.198-0.174-3.703-0.174-3.703l3.76-0.174c0,0,1.158,10.589-1.616,12.789c-2.78,2.2-7.583,1.795-8.973-1.505
			c-1.387-3.298-1.562-4.132-1.85-5.914C30.586,23.28,30.181,20.908,30.181,20.908"/>
	</g>
</g>
<path fill="none" stroke="#000000" stroke-width="2" d="M69.804,23.045c-0.709,33.989-64.497,24.154-62,23.598
	c15.932-3.54-2.084-8.299-2.084-23.598c0-11.146,14.346-20.182,32.042-20.182C55.458,2.864,70.036,11.901,69.804,23.045z"/>
</svg>
