<svg id="圖層_1" data-name="圖層 1" xmlns="http://www.w3.org/2000/svg" viewBox="0 0 58.13 64"><defs><style>.cls-1{fill:#fff;}</style></defs><title>w</title><polygon class="cls-1" points="29.19 14.37 27.06 36.28 26.84 36.25 26.84 40.69 43.65 38.59 31.14 36.85 29.19 14.37"/><path class="cls-1" d="M36.47,7.94V4.46h-.7V1.8H29.43V4.46h-.7V7.94a29.06,29.06,0,1,0,7.74,0ZM32.6,61.57A24.84,24.84,0,1,1,57.43,36.74,24.86,24.86,0,0,1,32.6,61.57Z" transform="translate(-3.54 -1.8)"/><circle class="cls-1" cx="29.06" cy="11.65" r="0.95"/><circle class="cls-1" cx="29.06" cy="58.19" r="0.95"/><circle class="cls-1" cx="52.33" cy="35.3" r="0.95"/><circle class="cls-1" cx="5.86" cy="35.3" r="0.95"/></svg>